<svg xmlns="http://www.w3.org/2000/svg" width="182" height="50" viewBox="0 0 182 50" fill="none">
<path d="M1.13867 49.9997H36.7304V48.2949H1.13867V49.9997Z" fill="white"/>
<path d="M44.0098 49.9977H55.1118V48.29H44.0098V49.9977Z" fill="white"/>
<path d="M1.13867 47.5369H38.9282V45.9385H1.13867V47.5369Z" fill="white"/>
<path d="M1.13867 44.9627H41.3875V43.3711H1.13867V44.9627Z" fill="white"/>
<path d="M1.13867 42.2625H55.1124V40.6689H1.13867V42.2625Z" fill="white"/>
<path d="M1.13867 39.4422H55.1124V37.8418H1.13867V39.4422Z" fill="white"/>
<path d="M4.27728 32.7799H55.1123V31.3291H4.27728V32.7799Z" fill="white"/>
<path d="M1.7207 30.5026H42.0992V29.0488H1.7207V30.5026Z" fill="white"/>
<path d="M1.00391 28.4069H41.9122V26.9521H1.00391V28.4069Z" fill="white"/>
<path d="M44.0098 28.3103H55.1118V26.8516H44.0098V28.3103Z" fill="white"/>
<path d="M55.1119 8.02181H63.2847V0L48.7996 0.0196854C48.7996 0.0196854 44.0428 0.60139 43.8442 5.03061L44.0098 9.94901L10.5541 9.94606C10.5541 9.94606 -0.997825 11.262 0.0696763 26.2338H38.0248V24.0162H12.2033C12.2033 24.0162 11.4261 22.8587 12.2951 22.3833H44.0098V24.7928H55.1119V21.9H63.2847V10.0435H55.1119V8.02181Z" fill="white"/>
<path d="M44.0098 47.5369H55.1118V45.9385H44.0098V47.5369Z" fill="white"/>
<path d="M44.0098 44.9627H55.1118V43.3711H44.0098V44.9627Z" fill="white"/>
<path d="M32.6855 37.026H55.113V35.5742H32.6855V37.026Z" fill="white"/>
<path d="M6.76169 34.8356H55.1116V33.3818H6.76169V34.8356Z" fill="white"/>
<path d="M44.0098 30.5026L55.1118 30.4987V29.0488H44.0098V30.5026Z" fill="white"/>
<path d="M88.1456 26.4426C88.1456 30.9486 84.8623 33.2026 78.2977 33.2026C76.0659 33.2026 73.9927 32.9378 72.0762 32.4063L72.9352 28.5519C74.8278 29.1976 76.6146 29.5204 78.2977 29.5204C80.1653 29.5204 81.5112 29.3413 82.3272 28.984C83.1453 28.6277 83.5544 28.0273 83.5544 27.1867C83.5544 26.3107 83.1693 25.5725 82.3971 24.9721C81.7316 24.4416 80.3818 23.7516 78.3496 22.8982C76.5039 22.1138 75.1311 21.2614 74.2322 20.3401C73.0978 19.1747 72.5322 17.7407 72.5322 16.0339C72.5322 14.0536 73.2764 12.5024 74.7659 11.3842C76.2555 10.2661 78.3964 9.70703 81.1879 9.70703C83.4776 9.70703 85.4001 9.897 86.9524 10.2779L86.3049 14.1166C84.7286 13.5516 83.0226 13.2701 81.1879 13.2701C78.4314 13.2701 77.0536 13.9955 77.0536 15.4473C77.0536 16.2209 77.3748 16.8479 78.0163 17.3322C78.577 17.7475 79.7972 18.3293 81.6788 19.0773C83.6771 19.8736 85.1726 20.7496 86.1663 21.7053C87.4852 22.9839 88.1456 24.5646 88.1456 26.4426Z" fill="white"/>
<path d="M111.906 32.5796H106.297C106.297 31.8198 105.766 29.6642 104.704 26.1139H96.6065C95.508 29.6071 94.9593 31.7627 94.9593 32.5796H89.6837C89.6837 32.1308 91.0495 28.4427 93.7771 21.5154C96.5047 14.5891 97.8695 10.7741 97.8695 10.0713H104.493C104.493 10.7288 105.729 14.4877 108.2 21.352C110.67 28.2154 111.906 31.9576 111.906 32.5796ZM103.81 22.8117C101.813 16.8647 100.813 13.6491 100.813 13.1649H100.533C100.533 13.6147 99.4997 16.8313 97.4315 22.8117H103.81Z" fill="white"/>
<path d="M124.297 10.0713C124.155 13.5054 124.086 17.7466 124.086 22.795C124.086 26.6336 123.285 29.3591 121.686 30.9733C120.33 32.3562 118.222 33.0481 115.36 33.0481C114.332 33.0481 113.309 32.927 112.293 32.6839L112.608 28.9673C113.391 29.3148 114.173 29.486 114.956 29.486C116.486 29.486 117.596 29.1593 118.285 28.5008C119.278 27.5549 119.773 25.7684 119.773 23.1414C119.773 17.8746 119.686 13.5192 119.511 10.0713H124.297Z" fill="white"/>
<path d="M133.917 32.5796H128.957C129.109 29.0087 129.185 25.0824 129.185 20.8067C129.185 16.6 129.109 13.0212 128.957 10.0713H133.917C133.765 12.9759 133.689 16.5547 133.689 20.8067C133.689 25.1523 133.765 29.0776 133.917 32.5796Z" fill="white"/>
<path d="M158.239 20.5467C158.239 23.8214 157.176 26.6797 155.049 29.1237C152.922 31.5666 149.943 32.7881 146.113 32.7881C144.384 32.7881 142.001 32.7182 138.963 32.5804C139.115 29.0991 139.19 25.1748 139.19 20.8076C139.19 16.6136 139.115 13.0338 138.963 10.0721H142.03C142.533 10.0721 143.28 10.0544 144.274 10.0199C145.267 9.98451 145.915 9.9668 146.218 9.9668C150.435 9.9668 153.493 11.0042 155.392 13.0791C157.29 15.1539 158.239 17.6431 158.239 20.5467ZM153.455 21.2908C153.455 19.0772 152.801 17.214 151.493 15.6972C150.185 14.1824 148.186 13.4236 145.5 13.4236C144.996 13.4236 144.307 13.4747 143.431 13.5791C143.548 15.8842 143.608 18.2937 143.608 20.8056C143.608 23.5615 143.664 26.2919 143.783 29.0016C144.541 29.1512 145.301 29.225 146.061 29.225C148.572 29.225 150.433 28.4553 151.642 26.9179C152.851 25.3795 153.455 23.5035 153.455 21.2908Z" fill="white"/>
<path d="M181.999 32.5796H176.391C176.391 31.8198 175.861 29.6642 174.798 26.1139H166.703C165.605 29.6071 165.056 31.7627 165.056 32.5796H159.781C159.781 32.1308 161.145 28.4427 163.872 21.5154C166.599 14.5891 167.964 10.7741 167.964 10.0703H174.589C174.589 10.7278 175.823 14.4867 178.294 21.351C180.764 28.2154 181.999 31.9576 181.999 32.5796ZM173.903 22.8127C171.906 16.8647 170.907 13.6491 170.907 13.1658H170.628C170.628 13.6157 169.593 16.8323 167.526 22.8127H173.903Z" fill="white"/>
<path d="M79.5006 37.7275L79.4278 39.074C77.8026 39.0002 75.9619 38.9658 73.9067 38.9658C73.9795 39.9658 74.0164 41.3438 74.0164 43.1026C75.4501 43.1026 76.8458 43.08 78.2017 43.0318V44.3418C76.8947 44.2936 75.5 44.269 74.0164 44.269C74.0164 46.6244 74.0494 48.3646 74.1172 49.4916H72.4491C72.5359 47.6244 72.5788 45.5643 72.5788 43.3133C72.5788 41.1932 72.5359 39.3329 72.4491 37.7295H79.5006V37.7275Z" fill="white"/>
<path d="M92.0062 43.4283C92.0062 45.3742 91.4296 46.9294 90.2763 48.0947C89.123 49.2601 87.7891 49.8428 86.2747 49.8428C84.8221 49.8428 83.5471 49.3093 82.4516 48.2384C81.3562 47.1695 80.8085 45.7266 80.8085 43.9077C80.8085 41.9371 81.3841 40.3771 82.5394 39.2235C83.6937 38.0699 85.0266 37.4941 86.54 37.4941C87.9926 37.4941 89.2666 38.0276 90.3641 39.0965C91.4595 40.1645 92.0062 41.6104 92.0062 43.4283ZM90.377 43.635C90.377 42.0828 89.962 40.8781 89.137 40.0267C88.3089 39.1733 87.3551 38.7481 86.2747 38.7481C85.273 38.7481 84.3821 39.1969 83.6009 40.0936C82.8198 40.9913 82.4287 42.1901 82.4287 43.6891C82.4287 45.2492 82.8447 46.4559 83.6777 47.3073C84.5118 48.1597 85.4656 48.5849 86.54 48.5849C87.5407 48.5849 88.4296 48.1321 89.2088 47.2217C89.987 46.3142 90.377 45.1173 90.377 43.635Z" fill="white"/>
<path d="M104.196 37.7275C104.17 38.8654 104.153 39.9284 104.141 40.9166C104.129 41.9038 104.122 42.8251 104.122 43.6814C104.122 47.7169 102.506 49.7337 99.2781 49.7337C98.4361 49.7337 97.7148 49.6146 97.1122 49.3764C96.5116 49.1392 96.0168 48.775 95.6287 48.2829C95.2416 47.7927 94.9582 47.1746 94.7777 46.4275C94.5981 45.6805 94.5063 44.7976 94.5063 43.7808C94.5063 42.8891 94.5003 41.9422 94.4883 40.9382C94.4754 39.9363 94.4574 38.8654 94.4335 37.7275H96.1734C96.0996 40.0229 96.0627 41.8182 96.0627 43.1204C96.0627 44.1686 96.1145 45.023 96.2183 45.6824C96.3231 46.3409 96.5076 46.8921 96.773 47.3301C97.0394 47.7691 97.3726 48.0821 97.7757 48.2652C98.1787 48.4492 98.6905 48.5408 99.3151 48.5408C99.9675 48.5408 100.499 48.4492 100.908 48.2652C101.317 48.0821 101.651 47.7779 101.906 47.3527C102.163 46.9285 102.347 46.3832 102.456 45.7188C102.565 45.0515 102.621 44.1794 102.621 43.1017C102.621 42.4639 102.611 41.7001 102.589 40.8123C102.567 39.9235 102.537 38.8969 102.493 37.7266H104.196V37.7275Z" fill="white"/>
<path d="M116.631 49.4906H115.348C115.348 49.3872 114.347 47.9453 112.345 45.1627C110.252 42.2414 109.058 40.3998 108.765 39.6341H108.675C108.784 41.0869 108.838 42.329 108.838 43.3654C108.838 45.3881 108.885 47.4305 108.977 49.4906H107.438C107.541 47.5328 107.593 45.4718 107.593 43.3123C107.593 41.1863 107.541 39.325 107.438 37.7285H109.194C109.194 37.8978 110.117 39.2709 111.961 41.8487C113.889 44.5584 114.989 46.3232 115.256 47.1421H115.347C115.244 45.6726 115.193 44.4265 115.193 43.4019C115.193 41.1735 115.15 39.2827 115.066 37.7285H116.63C116.526 39.325 116.474 41.1863 116.474 43.3123C116.475 45.4718 116.526 47.5328 116.631 49.4906Z" fill="white"/>
<path d="M129.495 43.1828C129.495 44.8954 128.941 46.3945 127.833 47.6829C126.725 48.9713 125.198 49.615 123.25 49.615C122.616 49.615 121.557 49.5727 120.072 49.49C120.164 47.6228 120.209 45.5628 120.209 43.3117C120.209 41.1916 120.163 39.3313 120.072 37.728H121.08C121.325 37.728 121.697 37.7191 122.197 37.7004C122.698 37.6827 123.027 37.6738 123.186 37.6738C125.341 37.6738 126.931 38.1975 127.957 39.2398C128.981 40.2851 129.495 41.6001 129.495 43.1828ZM127.901 43.5903C127.901 42.2546 127.469 41.1375 126.606 40.2388C125.742 39.3422 124.406 38.8933 122.599 38.8933C122.343 38.8933 121.993 38.9229 121.547 38.9839C121.595 40.3875 121.62 41.8284 121.62 43.3117C121.62 44.9368 121.653 46.5874 121.72 48.2616C122.209 48.3571 122.679 48.4053 123.13 48.4053C124.742 48.4053 125.939 47.9339 126.725 46.9909C127.509 46.048 127.901 44.9151 127.901 43.5903Z" fill="white"/>
<path d="M141.856 49.4906H139.925C139.925 49.086 139.54 47.8183 138.771 45.6864H133.488C132.73 47.7888 132.352 49.0555 132.352 49.4906H130.502C130.502 49.2662 131.289 47.3419 132.863 43.7129C134.439 40.0839 135.226 38.0898 135.226 37.7275H137.351C137.351 38.0829 138.101 40.0494 139.603 43.6263C141.105 47.2051 141.856 49.1579 141.856 49.4906ZM138.35 44.5033C136.914 40.9678 136.197 39.0888 136.197 38.8654H136.096C136.096 39.0514 135.354 40.9313 133.87 44.5033H138.35Z" fill="white"/>
<path d="M150.856 37.7275L150.81 39.0002C149.602 38.9392 148.354 38.9116 147.066 38.9116C147.053 40.0672 147.047 41.5327 147.047 43.3113C147.047 45.274 147.078 47.3331 147.14 49.4896H145.464C145.539 47.4354 145.575 45.3763 145.575 43.3113C145.575 41.5583 145.556 40.0918 145.52 38.9116C144.616 38.9116 143.347 38.9461 141.711 39.0189L141.757 37.7266H150.856V37.7275Z" fill="white"/>
<path d="M154.519 49.4906H152.779C152.872 47.5378 152.917 45.4787 152.917 43.3123C152.917 41.1794 152.872 39.3191 152.779 37.7285H154.519C154.434 39.3732 154.391 41.2325 154.391 43.3123C154.392 45.4915 154.434 47.5515 154.519 49.4906Z" fill="white"/>
<path d="M168.347 43.4283C168.347 45.3742 167.771 46.9294 166.616 48.0947C165.464 49.2601 164.13 49.8428 162.615 49.8428C161.162 49.8428 159.887 49.3093 158.792 48.2384C157.696 47.1695 157.148 45.7266 157.148 43.9077C157.148 41.9371 157.725 40.3771 158.879 39.2235C160.034 38.0699 161.366 37.4941 162.881 37.4941C164.333 37.4941 165.609 38.0276 166.705 39.0965C167.8 40.1645 168.347 41.6104 168.347 43.4283ZM166.719 43.635C166.719 42.0838 166.306 40.8781 165.477 40.0267C164.65 39.1733 163.696 38.7481 162.616 38.7481C161.615 38.7481 160.723 39.1969 159.942 40.0936C159.162 40.9913 158.772 42.1901 158.772 43.6891C158.772 45.2492 159.188 46.4559 160.021 47.3073C160.854 48.1597 161.807 48.5849 162.882 48.5849C163.883 48.5849 164.772 48.1321 165.551 47.2217C166.329 46.3142 166.719 45.1173 166.719 43.635Z" fill="white"/>
<path d="M180.168 49.4905H178.886C178.886 49.3872 177.885 47.9452 175.884 45.1627C173.789 42.2414 172.596 40.3998 172.302 39.6341H172.213C172.322 41.0868 172.376 42.329 172.376 43.3664C172.376 45.3891 172.421 47.4305 172.513 49.4905H170.974C171.079 47.5328 171.13 45.4718 171.13 43.3123C171.13 41.1863 171.079 39.325 170.974 37.7295H172.734C172.734 37.8988 173.654 39.2718 175.499 41.8487C177.428 44.5584 178.527 46.3232 178.796 47.1421H178.887C178.783 45.6726 178.732 44.4265 178.732 43.4018C178.732 41.1735 178.689 39.2827 178.603 37.7295H180.17C180.067 39.325 180.014 41.1872 180.014 43.3123C180.012 45.4718 180.065 47.5328 180.168 49.4905Z" fill="white"/>
</svg>