<?xml version="1.0" encoding="UTF-8"?>
<svg version="1.1" xmlns="http://www.w3.org/2000/svg" width="104" height="82">
<path d="M0 0 C1.24716797 0.01611328 2.49433594 0.03222656 3.77929688 0.04882812 C5.07287109 0.09072266 6.36644531 0.13261719 7.69921875 0.17578125 C9.01212891 0.19833984 10.32503906 0.22089844 11.67773438 0.24414062 C14.91455056 0.30299183 18.15077981 0.39266913 21.38671875 0.48828125 C21.38671875 5.10828125 21.38671875 9.72828125 21.38671875 14.48828125 C16.76671875 14.48828125 12.14671875 14.48828125 7.38671875 14.48828125 C7.38671875 15.14828125 7.38671875 15.80828125 7.38671875 16.48828125 C12.00671875 16.48828125 16.62671875 16.48828125 21.38671875 16.48828125 C21.41355311 19.80083451 21.43347655 23.11317308 21.44921875 26.42578125 C21.45759766 27.37130859 21.46597656 28.31683594 21.47460938 29.29101562 C21.47783203 30.19013672 21.48105469 31.08925781 21.484375 32.015625 C21.48961182 32.84827881 21.49484863 33.68093262 21.50024414 34.53881836 C21.38671875 36.48828125 21.38671875 36.48828125 20.38671875 37.48828125 C18.20032422 37.56087071 16.01171486 37.57201908 13.82421875 37.55078125 C12.02791016 37.53724609 12.02791016 37.53724609 10.1953125 37.5234375 C9.26847656 37.51183594 8.34164062 37.50023437 7.38671875 37.48828125 C7.38671875 38.80828125 7.38671875 40.12828125 7.38671875 41.48828125 C1.11671875 41.48828125 -5.15328125 41.48828125 -11.61328125 41.48828125 C-11.61328125 40.16828125 -11.61328125 38.84828125 -11.61328125 37.48828125 C-28.11328125 37.81828125 -44.61328125 38.14828125 -61.61328125 38.48828125 C-41.31828125 38.98328125 -41.31828125 38.98328125 -20.61328125 39.48828125 C-20.61328125 41.13828125 -20.61328125 42.78828125 -20.61328125 44.48828125 C-18.30328125 44.48828125 -15.99328125 44.48828125 -13.61328125 44.48828125 C-13.61328125 46.79828125 -13.61328125 49.10828125 -13.61328125 51.48828125 C-12.95328125 51.48828125 -12.29328125 51.48828125 -11.61328125 51.48828125 C-11.61328125 49.17828125 -11.61328125 46.86828125 -11.61328125 44.48828125 C-5.34328125 44.48828125 0.92671875 44.48828125 7.38671875 44.48828125 C7.38671875 51.74828125 7.38671875 59.00828125 7.38671875 66.48828125 C-21.65328125 66.48828125 -50.69328125 66.48828125 -80.61328125 66.48828125 C-80.61328125 65.16828125 -80.61328125 63.84828125 -80.61328125 62.48828125 C-63.78328125 62.48828125 -46.95328125 62.48828125 -29.61328125 62.48828125 C-29.61328125 61.16828125 -29.61328125 59.84828125 -29.61328125 58.48828125 C-43.47328125 58.48828125 -57.33328125 58.48828125 -71.61328125 58.48828125 C-71.61328125 57.49828125 -71.61328125 56.50828125 -71.61328125 55.48828125 C-72.93328125 55.48828125 -74.25328125 55.48828125 -75.61328125 55.48828125 C-75.61328125 54.16828125 -75.61328125 52.84828125 -75.61328125 51.48828125 C-77.26328125 51.48828125 -78.91328125 51.48828125 -80.61328125 51.48828125 C-83.54157118 43.43548394 -84.14952879 34.98223142 -80.55078125 27.05078125 C-77.46277518 21.57858815 -73.63207842 18.49454697 -67.61328125 16.48828125 C-65.78795539 16.4000116 -63.95953436 16.37064922 -62.13208008 16.37475586 C-61.01114456 16.37483139 -59.89020905 16.37490692 -58.73530579 16.37498474 C-57.525858 16.38014603 -56.31641022 16.38530731 -55.0703125 16.390625 C-53.83157883 16.39203995 -52.59284515 16.3934549 -51.3165741 16.39491272 C-48.02696588 16.39956523 -44.73740665 16.40854735 -41.44781494 16.4196167 C-38.08956502 16.42985496 -34.73130792 16.43441551 -31.37304688 16.43945312 C-24.78643913 16.4504898 -18.1998642 16.46723358 -11.61328125 16.48828125 C-11.67128906 15.75222656 -11.72929688 15.01617187 -11.7890625 14.2578125 C-12.15652298 6.31016716 -12.15652298 6.31016716 -9.52661133 2.33129883 C-6.03255801 0.12090676 -4.11144724 -0.09386866 0 0 Z " fill="#0059AB" transform="translate(82.61328125,-0.48828125)"/>
<path d="M0 0 C21.78 0 43.56 0 66 0 C66 1.32 66 2.64 66 4 C64.68 4 63.36 4 62 4 C62 5.32 62 6.64 62 8 C60.68 8 59.36 8 58 8 C58 8.99 58 9.98 58 11 C38.86 11 19.72 11 0 11 C0 7.37 0 3.74 0 0 Z " fill="#0059AB" transform="translate(2,71)"/>
<path d="M0 0 C29.04 0 58.08 0 88 0 C88 0.99 88 1.98 88 3 C58.96 3 29.92 3 0 3 C0 2.01 0 1.02 0 0 Z " fill="#005AAB" transform="translate(2,67)"/>
<path d="M0 0 C6.27 0 12.54 0 19 0 C19 3.63 19 7.26 19 11 C12.73 11 6.46 11 0 11 C0 7.37 0 3.74 0 0 Z " fill="#0059AB" transform="translate(71,71)"/>
</svg>
