<svg width="64" height="50" viewBox="0 0 64 50" fill="none" xmlns="http://www.w3.org/2000/svg">
<path d="M1.13867 49.9997H36.7304V48.2949H1.13867V49.9997Z" fill="#005aaa"/>
<path d="M44.0098 49.9977H55.1118V48.29H44.0098V49.9977Z" fill="#005aaa"/>
<path d="M1.13867 47.5369H38.9282V45.9385H1.13867V47.5369Z" fill="#005aaa"/>
<path d="M1.13867 44.9627H41.3875V43.3711H1.13867V44.9627Z" fill="#005aaa"/>
<path d="M1.13867 42.2625H55.1124V40.6689H1.13867V42.2625Z" fill="#005aaa"/>
<path d="M1.13867 39.4422H55.1124V37.8418H1.13867V39.4422Z" fill="#005aaa"/>
<path d="M4.27728 32.7799H55.1123V31.3291H4.27728V32.7799Z" fill="#005aaa"/>
<path d="M1.7207 30.5026H42.0992V29.0488H1.7207V30.5026Z" fill="#005aaa"/>
<path d="M1.00391 28.4069H41.9122V26.9521H1.00391V28.4069Z" fill="#005aaa"/>
<path d="M44.0098 28.3103H55.1118V26.8516H44.0098V28.3103Z" fill="#005aaa"/>
<path d="M55.1119 8.02181H63.2847V0L48.7996 0.0196854C48.7996 0.0196854 44.0428 0.60139 43.8442 5.03061L44.0098 9.94901L10.5541 9.94606C10.5541 9.94606 -0.997825 11.262 0.0696763 26.2338H38.0248V24.0162H12.2033C12.2033 24.0162 11.4261 22.8587 12.2951 22.3833H44.0098V24.7928H55.1119V21.9H63.2847V10.0435H55.1119V8.02181Z" fill="#005aaa"/>
<path d="M44.0098 47.5369H55.1118V45.9385H44.0098V47.5369Z" fill="#005aaa"/>
<path d="M44.0098 44.9627H55.1118V43.3711H44.0098V44.9627Z" fill="#005aaa"/>
<path d="M32.6855 37.026H55.113V35.5742H32.6855V37.026Z" fill="#005aaa"/>
<path d="M6.76169 34.8356H55.1116V33.3818H6.76169V34.8356Z" fill="#005aaa"/>
<path d="M44.0098 30.5026L55.1118 30.4987V29.0488H44.0098V30.5026Z" fill="#005aaa"/>
</svg>